<svg xmlns="http://www.w3.org/2000/svg" version="1.1" xmlns:xlink="http://www.w3.org/1999/xlink" xmlns:svgjs="http://svgjs.dev/svgjs" width="1500" height="1500" viewBox="0 0 1500 1500"><g transform="matrix(1,0,0,1,0,0)"><svg viewBox="0 0 280 280" data-background-color="#010536" preserveAspectRatio="xMidYMid meet" height="1500" width="1500" xmlns="http://www.w3.org/2000/svg" xmlns:xlink="http://www.w3.org/1999/xlink"><g id="tight-bounds" transform="matrix(1,0,0,1,0,0)"><svg viewBox="0 0 280 280" height="280" width="280"><g><svg viewBox="0 0 280 280" height="280" width="280"><g><svg viewBox="0 0 280 280" height="280" width="280"><g id="textblocktransform"><svg viewBox="0 0 280 280" height="280" width="280" id="textblock"><g><svg viewBox="0 0 280 280" height="280" width="280"><g transform="matrix(1,0,0,1,96.08074397114399,90.50252531694167)"><svg viewBox="0 0 87.83851205771201 98.99494936611666" height="98.99494936611666" width="87.83851205771201"><g id="icon-0"><svg xmlns="http://www.w3.org/2000/svg" xmlns:xlink="http://www.w3.org/1999/xlink" version="1.1" x="0" y="0" viewBox="18.493 14.49054315535405 63.01400000000001 71.01745684464595" enable-background="new 0 0 100 100" xml:space="preserve" height="98.99494936611666" width="87.83851205771201" class="icon-jxe-0" data-fill-palette-color="accent" id="jxe-0"><g fill="#ffff00" data-fill-palette-color="accent"><path fill="#ffff00" d="M49.943 14.491C48.716 14.519 47.599 15.666 47.628 16.895V43.737C47.628 44.967 48.744 46.114 50 46.114S52.372 44.968 52.372 43.737V16.896C52.399 15.638 51.228 14.464 49.943 14.491M39.786 24.109C27.395 28.359 18.493 40.13 18.493 53.969 18.493 71.361 32.614 85.508 50 85.508 67.358 85.508 81.507 71.361 81.507 53.969 81.507 40.13 72.605 28.359 60.214 24.109 59.042 23.717 57.618 24.417 57.2 25.591 56.809 26.765 57.507 28.191 58.679 28.582A26.805 26.805 0 0 1 76.763 53.97C76.763 68.789 64.819 80.783 50 80.783S23.209 68.789 23.209 53.97C23.209 42.172 30.8 32.19 41.321 28.583 42.382 28.248 43.079 27.129 42.912 25.982 42.632 24.306 41.042 23.718 39.786 24.109" data-fill-palette-color="accent"></path></g></svg></g></svg></g><g id="text-0"><path d="M26.741 104.566l-4.243 2.12-2.406-0.803 0.959-2.871 1.59 0.531 2.031-1.047 2.383-7.139-0.995-2.057-2.987-0.997-2.07 1.034-2.785 8.341-4.088 2.042-4.539-1.515-2.119-4.243 3.03-9.079 4.243-2.119 2.406 0.802-0.959 2.871-1.59-0.53-2.031 1.046-2.202 6.596 0.995 2.057 2.832 0.945 2.07-1.034 2.746-8.225 4.243-2.119 4.578 1.528 2.12 4.243z" fill="#fbfbf8" data-fill-palette-color="primary"></path><path d="M34.776 84.666l-25.266-14.646 1.518-2.619 11.324 6.564-1.547-5.813 3.18-5.485 5.142-1.368 14.367 8.328-1.518 2.619-13.553-7.857-2.759 0.764-2.113 3.645 1.844 6.932 10.899 6.318z" fill="#fbfbf8" data-fill-palette-color="primary"></path><path d="M51.593 60.425l-5.317 0.218-12.213-11.252 2.051-2.226 11.521 10.614 2.86-0.146 2.771-3.008-0.293-7.167-9.266-8.536 2.051-2.226 14.981 13.802-1.995 2.166-3.189-2.938 0.251 6.127z" fill="#fbfbf8" data-fill-palette-color="primary"></path><path d="M72.515 41.745l-5.252-0.857-8.144-11.323-2.989 2.15-1.552-2.158 3.055-2.198-3.87-5.379 2.391-1.72 3.869 5.38 5.18-3.726 1.553 2.158-5.18 3.726 7.595 10.559 2.854 0.466 3.52-2.532 1.553 2.158z" fill="#fbfbf8" data-fill-palette-color="primary"></path><path d="M86.532 33.558l-5.02-1.766-5.553-11.581 1.766-5.02 7.082-3.395 4.297 1.205-5.093-10.622 2.729-1.309 12.627 26.334-2.655 1.273-1.61-3.356-1.747 4.965zM86.545 30.558l5.053-2.423 2.016-5.729-3.13-6.528-5.026-1.401-5.385 2.582-0.978 2.692 4.74 9.884z" fill="#fbfbf8" data-fill-palette-color="primary"></path><path d="M111.191 24.353l-4.505-2.833-2.853-12.522 2.833-4.505 10.209-2.326 4.505 2.833 2.853 12.522-2.833 4.505zM111.867 21.43l7.657-1.744 1.549-2.409-2.435-10.688-2.439-1.499-7.657 1.744-1.549 2.408 2.435 10.688z" fill="#fbfbf8" data-fill-palette-color="primary"></path><path d="M136.002 21.041l-4.303-20.477 3.108 0.073 3.076 17.011 0.122 0.003 5.307-16.813 2.944 0.07 4.057 17.034 0.123 0.003 4.203-16.839 3.107 0.073-5.633 20.242-3.271-0.077-4.101-16.912-0.123-0.003-5.304 16.69z" fill="#fbfbf8" data-fill-palette-color="primary"></path><path d="M164.209 23.167l5.094-19.722 2.852 0.737-1.085 4.198 5.282-3.114 6.06 1.565 2.702 4.585-4.153 16.078-2.931-0.757 3.918-15.168-1.479-2.452-4-1.033-6.179 3.643-3.15 12.197z" fill="#fbfbf8" data-fill-palette-color="primary"></path><path d="M184.841 38.906l13.274-25.829 2.619 1.346-1.664 3.237 4.902-1.574 6.803 3.496 1.627 5.067-5.87 11.424-5.067 1.627-6.985-3.59-1.637-4.152-5.31 10.331zM196.223 31.971l5.312 2.729 2.735-0.848 5.01-9.749-0.903-2.718-4.911-2.524-5.893 1.893-3.216 6.257z" fill="#fbfbf8" data-fill-palette-color="primary"></path><path d="M214.033 46.804l-0.468-5.301 8.248-9.845 5.301-0.468 8.026 6.724 0.469 5.301-8.248 9.845-5.301 0.468zM216.77 45.576l6.02 5.043 2.855-0.224 7.039-8.403-0.281-2.849-6.02-5.043-2.854 0.223-7.039 8.403z" fill="#fbfbf8" data-fill-palette-color="primary"></path><path d="M249.572 48.127l0.136-1.73 1.368-1.169 1.73 0.136 1.169 1.368-0.136 1.73-1.368 1.169-1.73-0.136zM231.074 63.122l15.487-13.23 1.966 2.301-15.487 13.231z" fill="#fbfbf8" data-fill-palette-color="primary"></path><path d="M238.638 73.501l17.469-10.477 1.514 2.526-3.718 2.23 5.948 1.488 3.219 5.366-1.291 5.163-14.241 8.542-1.557-2.596 13.434-8.058 0.667-2.785-2.125-3.542-6.958-1.741-10.804 6.48z" fill="#fbfbf8" data-fill-palette-color="primary"></path><path d="M252.391 101.575l2.288-4.805 13.145-4.663-1.23-3.469 2.505-0.889 1.258 3.546 6.245-2.215 0.985 2.776-6.245 2.215 2.133 6.013-2.505 0.889-2.134-6.013-12.258 4.348-1.244 2.612 1.45 4.086-2.506 0.889z" fill="#fbfbf8" data-fill-palette-color="primary"></path><path d="M7.273 181.996l2.159-4.337 2.453-0.822 0.982 2.928-1.629 0.546-1.012 2.097 2.441 7.281 2.072 1.064 3.044-1.021 1.06-2.113-2.85-8.503 2.072-4.178 4.624-1.551 4.337 2.159 3.104 9.259-2.162 4.327-2.453 0.823-0.982-2.928 1.629-0.546 1.012-2.097-2.256-6.729-2.071-1.063-2.889 0.968-1.051 2.11 2.812 8.387-2.159 4.336-4.664 1.564-4.337-2.159z" fill="#fbfbf8" data-fill-palette-color="primary"></path><path d="M16.996 205.602l25.755-14.964 1.552 2.67-11.539 6.704 5.927 1.57 3.252 5.597-1.398 5.247-14.641 8.507-1.552-2.67 13.819-8.029 0.721-2.832-2.158-3.713-7.073-1.874-11.114 6.457z" fill="#fbfbf8" data-fill-palette-color="primary"></path><path d="M36.537 233.512l0.217-5.419 12.45-11.492 2.095 2.269-11.745 10.84-0.087 2.92 2.829 3.066 7.305 0.285 9.445-8.718 2.094 2.269-15.268 14.093-2.032-2.201 3.246-2.996-6.249-0.258z" fill="#fbfbf8" data-fill-palette-color="primary"></path><path d="M60.617 254.959l-0.877-5.351 8.304-11.561-3.057-2.195 1.581-2.201 3.123 2.243 3.943-5.49 2.442 1.754-3.943 5.49 5.282 3.794-1.581 2.201-5.282-3.794-7.743 10.78 0.477 2.911 3.588 2.577-1.581 2.201z" fill="#fbfbf8" data-fill-palette-color="primary"></path><path d="M77.579 264.881l-1.808-5.12 5.665-11.811 5.13-1.803 7.219 3.463 1.779 4.188 5.197-10.833 2.784 1.335-12.884 26.857-2.701-1.296 1.641-3.42-5.071 1.775zM79.967 262.976l5.154 2.472 5.843-2.062 3.193-6.656-2.088-4.892-5.494-2.636-2.766 0.942-4.838 10.086z" fill="#fbfbf8" data-fill-palette-color="primary"></path><path d="M106.564 275.611l-2.896-4.593 2.911-12.772 4.603-2.894 10.408 2.373 2.885 4.601-2.912 12.771-4.59 2.886zM108.472 273.224l7.806 1.78 2.488-1.531 2.486-10.907-1.579-2.457-7.806-1.78-2.489 1.531-2.486 10.907z" fill="#fbfbf8" data-fill-palette-color="primary"></path><path d="M136.417 279.436l-5.377-20.655 3.169-0.076 3.963 17.18 0.123-0.003 4.593-17.386 2.995-0.073 4.965 17.157 0.123-0.003 3.468-17.36 3.169-0.076-4.753 20.899-3.343 0.08-5.003-17.032-0.123 0.003-4.586 17.263z" fill="#fbfbf8" data-fill-palette-color="primary"></path><path d="M169.335 276.68l-5.21-20.115 2.911-0.754 1.11 4.286 3.166-5.393 6.177-1.6 4.686 2.758 4.246 16.392-2.99 0.774-4.007-15.471-2.532-1.457-4.079 1.056-3.711 6.306 3.223 12.443z" fill="#fbfbf8" data-fill-palette-color="primary"></path><path d="M202.238 274.9l-13.559-26.338 2.673-1.376 1.699 3.3 1.601-4.999 6.937-3.571 5.169 1.663 5.995 11.646-1.654 5.165-7.127 3.669-4.413-1.109 5.424 10.537zM203.24 261.342l5.409-2.785 0.919-2.773-5.12-9.946-2.791-0.863-5.01 2.579-1.918 6.013 3.285 6.382z" fill="#fbfbf8" data-fill-palette-color="primary"></path><path d="M227.288 248.847l-5.41-0.466-8.42-10.035 0.474-5.416 8.178-6.862 5.409 0.481 8.42 10.034-0.473 5.402zM226.538 245.886l6.134-5.147 0.283-2.907-7.19-8.57-2.913-0.226-6.133 5.146-0.284 2.908 7.19 8.57z" fill="#fbfbf8" data-fill-palette-color="primary"></path><path d="M228.656 213.922l-1.759 0.138-1.391-1.189-0.146-1.766 1.196-1.399 1.767-0.131 1.391 1.189 0.138 1.759zM246.712 230.176l-15.795-13.501 2.007-2.347 15.795 13.5z" fill="#fbfbf8" data-fill-palette-color="primary"></path><path d="M256.115 217.251l-17.805-10.71 1.55-2.576 3.794 2.282-1.517-6.068 3.289-5.467 5.276-1.313 14.511 8.728-1.592 2.646-13.696-8.238-2.827 0.734-2.172 3.61 1.767 7.1 11.014 6.626z" fill="#fbfbf8" data-fill-palette-color="primary"></path><path d="M271.713 185.413l-4.9 2.324-13.406-4.782-1.265 3.545-2.552-0.911 1.292-3.621-6.367-2.27 1.01-2.832 6.367 2.27 2.184-6.125 2.552 0.91-2.184 6.126 12.501 4.458 2.666-1.264 1.484-4.161 2.552 0.91z" fill="#fbfbf8" data-fill-palette-color="primary"></path><path d="M0 139.965c0-6.161 4.995-11.156 11.156-11.155 6.161 0 11.156 4.995 11.156 11.155 0 6.161-4.995 11.156-11.156 11.156-6.161 0-11.156-4.995-11.156-11.156z" fill="#fbfbf8" data-fill-palette-color="primary"></path><path d="M257.688 139.965c0-6.161 4.995-11.156 11.156-11.155 6.161 0 11.156 4.995 11.156 11.155 0 6.161-4.995 11.156-11.156 11.156-6.161 0-11.156-4.995-11.156-11.156z" fill="#fbfbf8" data-fill-palette-color="primary"></path></g><g id="text-1"></g></svg></g></svg></g></svg></g><g></g></svg></g><defs></defs></svg><rect width="280" height="280" fill="none" stroke="none" visibility="hidden"></rect></g></svg></g></svg>